<?xml version="1.0" encoding="UTF-8" standalone="no"?>
<!DOCTYPE svg PUBLIC "-//W3C//DTD SVG 1.1//EN" "http://www.w3.org/Graphics/SVG/1.1/DTD/svg11.dtd">
<svg width="100%" height="100%" viewBox="0 0 1801 1801" version="1.1" xmlns="http://www.w3.org/2000/svg" xmlns:xlink="http://www.w3.org/1999/xlink" xml:space="preserve" xmlns:serif="http://www.serif.com/" style="fill-rule:evenodd;clip-rule:evenodd;stroke-linecap:round;stroke-linejoin:round;stroke-miterlimit:1.5;">
    <g transform="matrix(1,0,0,1,-179.903,-1019.9)">
        <g>
            <g transform="matrix(1,0,0,1,662.284,962.091)">
                <path d="M1267.81,532.861L1267.81,1382.96C1267.81,1617.55 1077.36,1808.01 842.764,1808.01L-7.333,1808.01C-241.924,1808.01 -432.381,1617.55 -432.381,1382.96L-432.381,532.861C-432.381,298.27 -241.924,107.813 -7.333,107.813L842.764,107.813C1077.36,107.813 1267.81,298.27 1267.81,532.861Z" style="fill:white;fill-opacity:0;stroke:rgb(113,113,122);stroke-width:100px;"/>
            </g>
            <g transform="matrix(1.50374,0,0,1.03984,-593.672,70.9216)">
                <path d="M1232.86,1127.82L1356.47,1127.82L992.675,2428.66L869.542,2428.66L1232.86,1127.82Z" style="fill:rgb(113,113,122);stroke:white;stroke-width:0.77px;"/>
            </g>
        </g>
    </g>
</svg>
